<svg id="图层_1" data-name="图层 1" xmlns="http://www.w3.org/2000/svg" width="150px" height="42px"  viewBox="0 0 425.2 119.06"><defs><style>.cls-1,.cls-3{fill:#1d223a;}.cls-1,.cls-4{fill-rule:evenodd;}.cls-2,.cls-4{fill:#f5a200;}</style></defs><path class="cls-1" d="M128.43,10.56a3.83,3.83,0,0,0,2.81-1.21,3.87,3.87,0,0,0,1.21-2.85,3.77,3.77,0,0,0-1.21-2.79,3.91,3.91,0,0,0-2.81-1.18,4,4,0,0,0-2.85,1.18,3.8,3.8,0,0,0-1.21,2.79,3.9,3.9,0,0,0,1.21,2.85,3.87,3.87,0,0,0,2.85,1.21"/><path class="cls-1" d="M170.65,41.3h4.24a.57.57,0,0,0,.46-.21.62.62,0,0,0,.16-.47l-2.74-26.85a.64.64,0,0,0-.63-.56l-3.56.1a.64.64,0,0,0-.45.21A.63.63,0,0,0,168,14L170,40.73a.63.63,0,0,0,.61.57"/><path class="cls-2" d="M301.6,7.49V3.43a.91.91,0,0,0-.91-.91h-4.23a.91.91,0,0,0-.91.91V6.82a.88.88,0,0,1-.88.89h-6.74V3.18a.9.9,0,0,0-.89-.89h-4.27a.9.9,0,0,0-.89.89V7.71H269.74a.88.88,0,0,0-.88.88v4.28a.88.88,0,0,0,.88.89h12.14v39.3a.89.89,0,0,0,.89.89H287a.89.89,0,0,0,.89-.89V13.76h7.4A6.27,6.27,0,0,0,301.6,7.49Z"/><path class="cls-2" d="M275.71,17.93h-3.9A1.07,1.07,0,0,0,270.74,19l1.47,28a.89.89,0,0,1-.89.88H261.19V31h4.94a.87.87,0,0,0,.88-.88V25.79a.87.87,0,0,0-.88-.88h-4.94V8.35h4.94a.89.89,0,0,0,.88-.89V3.18a.89.89,0,0,0-.88-.89H251.42a.9.9,0,0,0-.89.89V7.46a.9.9,0,0,0,.89.89h3.72V24.91h-3.72a.88.88,0,0,0-.89.88v4.28a.88.88,0,0,0,.89.88h3.72v17h-3.72a.89.89,0,0,0-.89.88v4.28a.89.89,0,0,0,.89.89H272a6.28,6.28,0,0,0,6.27-6.28L276.79,19A1.08,1.08,0,0,0,275.71,17.93Z"/><path class="cls-2" d="M300.84,47.9h-3.06a.89.89,0,0,1-.89-.89l1.48-28a1.08,1.08,0,0,0-1.08-1.07H293.4A1.07,1.07,0,0,0,292.32,19l-1.48,28.67A6.28,6.28,0,0,0,297.11,54h3.73a.89.89,0,0,0,.88-.89V48.78A.89.89,0,0,0,300.84,47.9Z"/><path class="cls-2" d="M239.15,47.81H217.09V40.24h20.28a.88.88,0,0,0,.88-.88V35.08a.88.88,0,0,0-.88-.89H217.09V26.86h20.28a.87.87,0,0,0,.88-.88V21.7a.88.88,0,0,0-.88-.89H190a.89.89,0,0,0-.89.89V26a.88.88,0,0,0,.89.88h21v7.33H190a.89.89,0,0,0-.89.89v4.28a.89.89,0,0,0,.89.88h21v7.57H189.48a.82.82,0,0,0-.82.82v4.52a.83.83,0,0,0,.82.82H234c4.51,0,5.48-3.93,5.68-5.52A.56.56,0,0,0,239.15,47.81Z"/><path class="cls-2" d="M193.73,17.8a1.83,1.83,0,0,0,1.4-.88L199,9.43a2.2,2.2,0,0,1,1.89-1.08h26.2A2.2,2.2,0,0,1,229,9.43l3.86,7.49a1.52,1.52,0,0,0,1.4.88H239a.73.73,0,0,0,.64-1.08L234.25,6.29a7.4,7.4,0,0,0-6.57-4H200a7.4,7.4,0,0,0-6.57,4l-5.39,10.43a.73.73,0,0,0,.64,1.08Z"/><path class="cls-2" d="M360.37,8.32a.89.89,0,0,0,.89-.9V3.15a.89.89,0,0,0-.89-.89H351.2s0,0-.06,0h-4.27l-.05,0H313a.88.88,0,0,0-.88.89V7.42a.88.88,0,0,0,.88.9h10.46v4.07l0,11.51s0,.12,0,.28H313a.88.88,0,0,0-.88.89v4.27a.87.87,0,0,0,.88.89h10a27.69,27.69,0,0,1-3.88,10.52,20,20,0,0,1-6.24,6.36s0,0,0,.06a1.43,1.43,0,0,0-.7,1h0v4.6c0,1,.4,1.11.7,1.08l.34-.11c2.31-.8,3.93-2.08,6.52-4.31a18.63,18.63,0,0,0,3.88-4.25,32.5,32.5,0,0,0,5.36-15H346V53a.87.87,0,0,0,.88.88h4.27A.88.88,0,0,0,352,53V30.23h8.34a.89.89,0,0,0,.89-.89V25.07a.89.89,0,0,0-.89-.89H352V8.32ZM346,24.18H329.33V8.32H346Z"/><path class="cls-2" d="M417.22,5.75h-16V3.06a.91.91,0,0,0-.89-.92h-4.29a.91.91,0,0,0-.9.92V5.8h-18a6.23,6.23,0,0,0-6.36,6.27V52.91a.91.91,0,0,0,.93.89c5.33-.17,5.2-7.55,5.2-7.55V13a.91.91,0,0,1,.93-.89h35.71v0h3.7a.91.91,0,0,0,.89-.93V6.68A.91.91,0,0,0,417.22,5.75Z"/><path class="cls-2" d="M417.22,17.93h-16V14.67a.91.91,0,0,0-.89-.92H396a.87.87,0,0,0-.86.88V28.91h-6.76A6.24,6.24,0,0,0,382,35.18V53.11a.87.87,0,0,0,.85.88h34.37a.88.88,0,0,0,.86-.88V35.18a6.24,6.24,0,0,0-6.37-6.27H401.26V24.23h16a.91.91,0,0,0,.89-.93V18.85A.91.91,0,0,0,417.22,17.93Zm-8,17.27h1.79a.91.91,0,0,1,.93.88V47.94H388.16V36.08a.91.91,0,0,1,.93-.88h20.17Z"/><path class="cls-3" d="M55.82,49.35h-11a.88.88,0,0,1-.88-.88l0-37.95a.88.88,0,0,1,.88-.87H58.84a.87.87,0,0,0,.88-.88V4.2a.87.87,0,0,0-.88-.88H10.51a.88.88,0,0,0-.89.88V8.76a.88.88,0,0,0,.89.88h11c3.9,0,3.43.44,3.43,3.82l0,35a.88.88,0,0,1-.87.88H9.43a.88.88,0,0,0-.88.87v4.54a.88.88,0,0,0,.88.88l46.39,0c3.5-.25,5.27-1.77,5.27-4.57V49.35Zm-18.2-.89a.87.87,0,0,1-.87.88H32.21a.89.89,0,0,1-.88-.88l0-37.95a.87.87,0,0,1,.87-.87H35c3.08,0,2.57.44,2.57,3.82Z"/><path class="cls-3" d="M58,16.83H53.46a.87.87,0,0,0-.86.76L49.21,41.86a.88.88,0,0,0,.86,1h2.45c2,0,3.22-1.06,3.74-3.19l2.62-21.87a.89.89,0,0,0-.87-1"/><path class="cls-3" d="M14.23,42.87h4.53a.89.89,0,0,0,.88-1L16.87,17.61a.89.89,0,0,0-.87-.78H11.47a.88.88,0,0,0-.87,1l2.77,24.28a.87.87,0,0,0,.86.78"/><path class="cls-1" d="M166,40.83V4.12a.91.91,0,0,0-.91-.91h-4.06a.91.91,0,0,0-.91.91V46h1.14c3.31,0,4.74-1.75,4.74-5.18"/><path class="cls-1" d="M151.39,41.31h4.05a.63.63,0,0,0,.62-.57L158.12,14a.59.59,0,0,0-.15-.46.63.63,0,0,0-.44-.21l-3.38-.09a.61.61,0,0,0-.63.55l-2.74,26.87a.62.62,0,0,0,.61.67"/><path class="cls-1" d="M132.88,49.55c-.92,0-1.38-.43-1.38-1.31l0-30.45a1,1,0,0,0-1-1h-4.38a1,1,0,0,0-1,1V49.55c0,4.69,2.42,6.3,7.13,6.3h36.83c5.76,0,5.85-6.3,5.85-6.3Z"/><path class="cls-3" d="M103,39.59V38.05H65.91a1,1,0,0,0-1,1v3.9a1,1,0,0,0,1,1H97c4,0,6-1.44,6-4.29"/><path class="cls-3" d="M71,9.64h33.68a1,1,0,0,1,.92,1.19l-2.89,12a.71.71,0,0,0,.69.88h4.84a.69.69,0,0,0,.68-.55l3.29-13.52c1-3.75-.43-6.32-4.78-6.32H71a1,1,0,0,0-1,1V8.67a1,1,0,0,0,1,1"/><path class="cls-3" d="M109,26.17H80a1.82,1.82,0,0,1-1.74-2.38L80.44,17a1,1,0,0,0-.92-1.26H75.38a.8.8,0,0,0-.79.63h0l-2.89,7.66c-1.49,5.06.61,8.27,4.82,8.31l25.75,0h6.3a1.2,1.2,0,0,1,1.14,1.17V48a1.32,1.32,0,0,1-1.5,1.47H79.65a1,1,0,0,0-1,1v4.28a1,1,0,0,0,1,.95h29.09c5,0,7.12-1.83,7.16-6.31V33.91c0-4.91-2-7.54-6.41-7.73H109"/><path class="cls-3" d="M136.91,21.07l3.18,0a.69.69,0,0,0,.68-.69V15.49a.72.72,0,0,1,.15-.42l3.86-5A.69.69,0,0,0,144.24,9l-7.09,0a.69.69,0,0,1-.68-.68l0-4.27a.68.68,0,0,1,.69-.68l10.64-.06c5.67-.13,5.64,3,3.63,6.2l-5.63,8.18a.66.66,0,0,0-.11.39v2.23a.69.69,0,0,0,.68.69h2a.69.69,0,0,1,.69.69v4.15a.69.69,0,0,1-.69.68h-2a.68.68,0,0,0-.68.69V40.78q-.06,5.13-5.17,5.13H137a.69.69,0,0,1-.69-.69V40.41a.69.69,0,0,1,.69-.68h2.39c.94.07,1.4-.32,1.4-1.19V27.24a.68.68,0,0,0-.68-.69l-3.18-.07a.69.69,0,0,1-.69-.69V21.63c0-.38.31-.56.69-.56"/><path class="cls-3" d="M201.27,89.87a11.29,11.29,0,0,1-3.15,1.93,9.27,9.27,0,0,1-3.41.66,8.23,8.23,0,0,1-7.83-5.07,13.77,13.77,0,0,1-1.14-5.8,12.76,12.76,0,0,1,2.45-8.22,8.06,8.06,0,0,1,6.61-3A9.61,9.61,0,0,1,201.57,73l.34-2h3.59V91.51c0,3.43-.91,6.07-2.74,7.94s-4.42,2.81-7.79,2.81a16.32,16.32,0,0,1-7.47-1.73V97.47a22.71,22.71,0,0,0,7.12,1.34c2.31,0,4-.56,5.06-1.66s1.59-2.88,1.59-5.34ZM196,89a8.77,8.77,0,0,0,5.31-2V75.68a8.53,8.53,0,0,0-5.56-1.9q-5.61,0-5.62,7.64a9.15,9.15,0,0,0,1.49,5.67A5.21,5.21,0,0,0,196,89Z"/><path class="cls-3" d="M217.25,92.55a8.94,8.94,0,0,1-3.11.52,4.52,4.52,0,0,1-3.5-1.32,5.38,5.38,0,0,1-1.2-3.77V64.22h4.27v23.5a2.07,2.07,0,0,0,.41,1.44,1.75,1.75,0,0,0,1.36.46,13.54,13.54,0,0,0,1.77-.13Z"/><path class="cls-3" d="M229.28,93.5a9.79,9.79,0,0,1-7.67-3.06c-1.85-2-2.77-4.89-2.77-8.55s.92-6.46,2.77-8.5a11.17,11.17,0,0,1,15.36,0c1.83,2,2.75,4.88,2.75,8.5s-.92,6.5-2.75,8.55A9.85,9.85,0,0,1,229.28,93.5Zm0-3.45q6.09,0,6.09-8.16t-6.09-8.11q-6.08,0-6.08,8.11T229.28,90.05Z"/><path class="cls-3" d="M243.23,92.85V64.22h4.28V73a10.64,10.64,0,0,1,7-2.71,8,8,0,0,1,6.6,3q2.41,3,2.42,8.28a13.28,13.28,0,0,1-2.54,8.5,8.27,8.27,0,0,1-6.78,3.2,9.9,9.9,0,0,1-6.95-2.77l-.48,2.29Zm10.06-19.07a9.62,9.62,0,0,0-5.78,2v12a9.27,9.27,0,0,0,5.7,2.07q5.94,0,6-8,0-4.09-1.45-6.09A5.11,5.11,0,0,0,253.29,73.78Z"/><path class="cls-3" d="M280.18,92.85l-.34-2.24a12,12,0,0,1-3.43,2.07,10.19,10.19,0,0,1-3.73.74,6.78,6.78,0,0,1-4.9-1.76,6.79,6.79,0,0,1,.41-9.7,9.13,9.13,0,0,1,6-1.88,22.49,22.49,0,0,1,5.44.73V78a4.21,4.21,0,0,0-1.06-3.27,5.35,5.35,0,0,0-3.6-1,23.58,23.58,0,0,0-7.6,1.34v-3a14.33,14.33,0,0,1,3.8-1.27,23,23,0,0,1,4.53-.45c2.74,0,4.74.56,6,1.7a6.55,6.55,0,0,1,1.94,5.2V92.85Zm-6.47-2.67a10.19,10.19,0,0,0,6-2.2V83.57a19,19,0,0,0-4.58-.55c-3.24,0-4.87,1.24-4.87,3.75a3.34,3.34,0,0,0,.91,2.52A3.53,3.53,0,0,0,273.71,90.18Z"/><path class="cls-3" d="M295.49,92.55a8.9,8.9,0,0,1-3.11.52,4.52,4.52,0,0,1-3.5-1.32,5.38,5.38,0,0,1-1.2-3.77V64.22H292v23.5a2.12,2.12,0,0,0,.41,1.44,1.73,1.73,0,0,0,1.36.46,13.67,13.67,0,0,0,1.77-.13Z"/><path class="cls-3" d="M319,87a2.22,2.22,0,0,0-.68-1.68,7.27,7.27,0,0,0-2.43-1.3l-3.67-1.37q-4.78-1.77-4.79-6a5.51,5.51,0,0,1,2.18-4.53,8.92,8.92,0,0,1,5.72-1.72,15.24,15.24,0,0,1,6.42,1.38v3a20.4,20.4,0,0,0-6.21-1.08c-2.76,0-4.14.94-4.14,2.8a2.29,2.29,0,0,0,.69,1.78,9.37,9.37,0,0,0,2.72,1.42l3.36,1.29a8.89,8.89,0,0,1,3.67,2.36A5.3,5.3,0,0,1,323,86.81a5.89,5.89,0,0,1-2.29,4.88,9.49,9.49,0,0,1-6.08,1.81,15.92,15.92,0,0,1-7.42-1.64v-3a24.15,24.15,0,0,0,7.51,1.34,5.37,5.37,0,0,0,3.21-.82A2.78,2.78,0,0,0,319,87Z"/><path class="cls-3" d="M330.13,82.84q.11,3.72,1.84,5.49c1.16,1.17,3,1.76,5.43,1.76a19.53,19.53,0,0,0,6.93-1.34v3.06a15.63,15.63,0,0,1-7.59,1.69c-3.54,0-6.22-1-8-2.94S326,85.72,326,81.89c0-3.65.9-6.49,2.72-8.52a9.62,9.62,0,0,1,7.59-3,8.26,8.26,0,0,1,6.3,2.31,9.05,9.05,0,0,1,2.2,6.53,18.56,18.56,0,0,1-.34,3.67Zm6-9.28a5.49,5.49,0,0,0-4.22,1.62A7.57,7.57,0,0,0,330.13,80h10.76c0-.23,0-.6,0-1.12a5.64,5.64,0,0,0-1.23-4A4.63,4.63,0,0,0,336.09,73.56Z"/><path class="cls-3" d="M355.77,92.55a8.85,8.85,0,0,1-3.1.52,4.51,4.51,0,0,1-3.5-1.32A5.39,5.39,0,0,1,348,88V64.22h4.27v23.5a2.06,2.06,0,0,0,.42,1.44,1.72,1.72,0,0,0,1.36.46,13.39,13.39,0,0,0,1.76-.13Z"/><path class="cls-3" d="M365.87,92.55a9,9,0,0,1-3.11.52,4.51,4.51,0,0,1-3.5-1.32,5.38,5.38,0,0,1-1.2-3.77V64.22h4.27v23.5a2.07,2.07,0,0,0,.41,1.44,1.71,1.71,0,0,0,1.35.46,13.69,13.69,0,0,0,1.78-.13Z"/><path class="cls-3" d="M371.27,69.4a2.69,2.69,0,0,1-2-.71,2.87,2.87,0,0,1,0-3.76,3.09,3.09,0,0,1,3.94,0,2.87,2.87,0,0,1,0,3.76A2.7,2.7,0,0,1,371.27,69.4Z"/><rect class="cls-3" x="369.11" y="70.98" width="4.27" height="21.87"/><path class="cls-3" d="M391.59,92.85V78.23a5.08,5.08,0,0,0-.93-3.37,3.62,3.62,0,0,0-2.9-1.08,11.88,11.88,0,0,0-6.7,2.2V92.85h-4.27V71h3.58l.43,2.41a14.2,14.2,0,0,1,8.63-3.06,6.46,6.46,0,0,1,4.8,1.66,6.56,6.56,0,0,1,1.64,4.81v16Z"/><path class="cls-3" d="M413.88,89.87a11.29,11.29,0,0,1-3.15,1.93,9.31,9.31,0,0,1-3.41.66,8.23,8.23,0,0,1-7.83-5.07,13.61,13.61,0,0,1-1.14-5.8c0-3.45.81-6.19,2.45-8.22a8.06,8.06,0,0,1,6.61-3A9.62,9.62,0,0,1,414.18,73l.35-2h3.58V91.51c0,3.43-.92,6.07-2.74,7.94s-4.42,2.81-7.79,2.81a16.25,16.25,0,0,1-7.46-1.73V97.47a22.56,22.56,0,0,0,7.11,1.34c2.3,0,4-.56,5-1.66s1.6-2.88,1.6-5.34Zm-5.3-.86a8.79,8.79,0,0,0,5.3-2V75.68a8.54,8.54,0,0,0-5.57-1.9q-5.61,0-5.61,7.64a9.15,9.15,0,0,0,1.49,5.67A5.2,5.2,0,0,0,408.58,89Z"/><path class="cls-4" d="M113,113.15c-.8.67-1.56.31-1.2-.57"/><path class="cls-4" d="M110.66,106c-9.7,7.16-23.76,11-35.87,11A64.93,64.93,0,0,1,31,100.2c-.91-.82-.1-1.94,1-1.3a88.3,88.3,0,0,0,43.85,11.63,87.11,87.11,0,0,0,33.44-6.85C110.89,103,112.26,104.77,110.66,106Z"/><path class="cls-4" d="M114.69,101.35c-1.23-1.59-8.19-.76-11.32-.38-1,.11-1.1-.72-.25-1.32,5.56-3.9,14.66-2.77,15.72-1.46s-.29,10.43-5.49,14.78c-.8.67-1.56.32-1.2-.56C113.31,109.48,115.93,102.93,114.69,101.35Z"/><path class="cls-1" d="M103.59,72.1V68.31a.94.94,0,0,1,1-1h17a.94.94,0,0,1,1,1v3.25a5.25,5.25,0,0,1-1.27,2.38L112.43,86.5a18.78,18.78,0,0,1,9.69,2.09,1.69,1.69,0,0,1,.9,1.47v4c0,.57-.61,1.21-1.25.87a19.6,19.6,0,0,0-18,0c-.59.31-1.2-.33-1.2-.88V90.28a4.57,4.57,0,0,1,.63-2.6l10.19-14.63h-8.87A.94.94,0,0,1,103.59,72.1Z"/><path class="cls-1" d="M41.63,95.77H36.47a1,1,0,0,1-.93-.87V68.38a1,1,0,0,1,1-1h4.82a1,1,0,0,1,.93.89v3.47h.1c1.25-3.35,3.62-4.92,6.8-4.92s5.26,1.57,6.7,4.92a7.63,7.63,0,0,1,13.12-2c1.64,2.24,1.31,5.47,1.31,8.32V94.82a1,1,0,0,1-1,1H64.15a1,1,0,0,1-.92-1V80.76a34,34,0,0,0-.15-5,2.69,2.69,0,0,0-3-2.3A3.43,3.43,0,0,0,57,75.68a15.78,15.78,0,0,0-.49,5.08V94.82a1,1,0,0,1-1,1H50.32a1,1,0,0,1-.93-1V80.76c0-3,.48-7.31-3.18-7.31s-3.57,4.24-3.57,7.31V94.82A1,1,0,0,1,41.63,95.77Z"/><path class="cls-1" d="M137.14,66.86c7.66,0,11.81,6.59,11.81,15,0,8.09-4.58,14.51-11.81,14.51-7.53,0-11.63-6.59-11.63-14.79S129.66,66.86,137.14,66.86Zm0,5.42c-3.81,0-4.06,5.19-4.06,8.42s0,10.16,4,10.16,4.19-5.58,4.19-9a24.33,24.33,0,0,0-.78-7A3.22,3.22,0,0,0,137.18,72.28Z"/><path class="cls-1" d="M158.9,95.77h-5.15a1,1,0,0,1-.93-1V68.29a1,1,0,0,1,1-.87h4.8a1,1,0,0,1,.92.75v4h.09c1.45-3.63,3.47-5.36,7-5.36a6.76,6.76,0,0,1,6,3.13C174,72.11,174,75.68,174,78.25V94.94a1,1,0,0,1-1,.83h-5.18a1,1,0,0,1-.91-.83V80.54c0-2.91.33-7.15-3.24-7.15a3.39,3.39,0,0,0-3,2.12,11.87,11.87,0,0,0-.82,5V94.82A1,1,0,0,1,158.9,95.77Z"/><path class="cls-1" d="M90.05,83.11c0,2,0,3.69-1,5.48a4.2,4.2,0,0,1-3.58,2.34c-2,0-3.13-1.5-3.13-3.74,0-4.4,3.94-5.2,7.68-5.2Zm5.2,12.6a1.09,1.09,0,0,1-1.22.12,12.78,12.78,0,0,1-3-3.45c-2.83,2.89-4.84,3.75-8.52,3.75-4.34,0-7.73-2.68-7.73-8a8.77,8.77,0,0,1,5.51-8.44c2.8-1.23,6.72-1.45,9.72-1.79v-.67c0-1.24.09-2.69-.63-3.75a3.46,3.46,0,0,0-2.9-1.34,3.93,3.93,0,0,0-4.15,3.1,1.09,1.09,0,0,1-.9,1l-5-.54a.92.92,0,0,1-.77-1.08c1.15-6.08,6.65-7.92,11.56-7.92,2.52,0,5.8.68,7.78,2.58,2.52,2.35,2.28,5.48,2.28,8.89v8.05c0,2.43,1,3.49,2,4.79a1,1,0,0,1,0,1.37c-1,.89-2.93,2.52-4,3.44Z"/><path class="cls-1" d="M22.31,83.11c0,2,.05,3.69-1,5.48a4.22,4.22,0,0,1-3.58,2.34c-2,0-3.15-1.5-3.15-3.74,0-4.4,4-5.2,7.69-5.2Zm5.21,12.6a1.09,1.09,0,0,1-1.22.12,12.43,12.43,0,0,1-3-3.45c-2.84,2.89-4.85,3.75-8.52,3.75-4.35,0-7.73-2.68-7.73-8a8.77,8.77,0,0,1,5.51-8.44c2.8-1.23,6.72-1.45,9.71-1.79v-.67c0-1.24.1-2.69-.63-3.75a3.46,3.46,0,0,0-2.9-1.34,3.93,3.93,0,0,0-4.15,3.1,1.11,1.11,0,0,1-.9,1l-5-.54A.92.92,0,0,1,8,74.52c1.15-6.08,6.63-7.92,11.56-7.92,2.51,0,5.79.68,7.78,2.58,2.51,2.35,2.27,5.48,2.27,8.89v8.05c0,2.43,1,3.49,2,4.79.32.47.4,1,0,1.37-1,.89-2.93,2.52-4,3.44Z"/></svg>